#!OML:ASF F:\VICON\USERDATA\INSTALL\rory3\rory3.ASF
:FULLY-SPECIFIED
:DEGREES
1290
root 0.0814226 16.6519 -0.702641 -0.427243 -8.60956 -2.4446
lowerback -1.77428 -0.377769 -2.98895
upperback -5.42188 -0.518024 0.788055
thorax -4.57283 -0.116289 2.50116
lowerneck -9.10835 -9.93983 -17.8818
upperneck 21.8021 -14.9504 16.5183
head 11.2117 -6.92471 6.93291
rclavicle -1.5207e-014 -1.78906e-014
rhumerus -17.7892 10.2018 -95.9564
rradius 120.849
rwrist 27.7013
rhand 46.1701 7.88148
rfingers 7.12502
rthumb 67.2672 4.99839
lclavicle -1.5207e-014 -1.78906e-014
lhumerus -9.88488 -11.6615 101.156
lradius 119.72
lwrist -16.6493
lhand 38.2366 44.9782
lfingers 7.12502
lthumb 60.918 57.7572
rfemur -15.1796 8.79038 21.822
rtibia 38.555
rfoot -22.9263 -6.48186
rtoes -15.4586
lfemur -14.3945 -2.24698 -15.6463
ltibia 41.8385
lfoot -24.9498 7.5168
ltoes -19.8332
1291
root 0.0800376 16.656 -0.702665 -0.422963 -8.37588 -2.409
lowerback -1.80598 -0.406858 -3.03765
upperback -5.38873 -0.557203 0.745614
thorax -4.51758 -0.136036 2.48475
lowerneck -9.18945 -9.96972 -17.913
upperneck 21.8087 -15.0121 16.6495
head 11.259 -6.93939 6.97593
rclavicle 1.04362e-014 -1.90833e-014
rhumerus -17.1551 10.0898 -95.5825
rradius 121.1
rwrist 27.6694
rhand 46.9574 8.39863
rfingers 7.12502
rthumb 67.8452 6.80959
lclavicle 1.04362e-014 -1.90833e-014
lhumerus -9.91926 -11.8099 101.157
lradius 119.589
lwrist -16.583
lhand 38.0599 44.8941
lfingers 7.12502
lthumb 60.7683 57.8417
rfemur -15.1368 8.71268 21.7974
rtibia 38.5172
rfoot -22.8602 -6.59415
rtoes -15.2883
lfemur -14.4102 -2.26712 -15.6619
ltibia 41.749
lfoot -24.8875 7.26618
ltoes -19.6528
1292
root 0.0760431 16.6599 -0.703942 -0.454163 -8.13131 -2.33582
lowerback -1.73699 -0.463479 -3.21604
upperback -5.39388 -0.636905 0.741396
thorax -4.55634 -0.167447 2.58289
lowerneck -9.10784 -9.9852 -17.9505
upperneck 21.7316 -15.0403 16.6901
head 11.2272 -6.95636 6.99311
rclavicle -2.00773e-014 2.78299e-015
rhumerus -16.5249 10.123 -95.1646
rradius 121.285
rwrist 27.3366
rhand 47.3043 8.53479
rfingers 7.12502
rthumb 68.0959 7.53817
lclavicle -2.00773e-014 2.78299e-015
lhumerus -10.054 -11.8785 101.204
lradius 119.413
lwrist -16.6474
lhand 38.0398 44.7944
lfingers 7.12502
lthumb 60.7513 57.761
rfemur -15.0489 8.63348 21.7482
rtibia 38.4579
rfoot -22.8446 -6.73069
rtoes -15.0181
lfemur -14.3852 -2.30342 -15.7088
ltibia 41.6197
lfoot -24.7237 7.24487
ltoes -20.7144
1293
root 0.0717359 16.6645 -0.70377 -0.463888 -7.96894 -2.36665
lowerback -1.62337 -0.494054 -3.31822
upperback -5.46394 -0.682082 0.786967
thorax -4.6907 -0.180958 2.69041
lowerneck -8.94269 -9.97929 -18.0195
upperneck 21.6544 -15.0431 16.7206
head 11.1751 -6.96989 7.01968
rclavicle -1.49089e-014 6.75868e-015
rhumerus -15.9607 10.1927 -94.7184
rradius 121.464
rwrist 26.9118
rhand 47.5031 8.47065
rfingers 7.12502
rthumb 68.2386 7.81994
lclavicle -1.49089e-014 6.75868e-015
lhumerus -10.3729 -11.9202 101.325
lradius 119.257
lwrist -16.719
lhand 37.9641 44.7688
lfingers 7.12502
lthumb 60.6871 57.8069
rfemur -14.942 8.59616 21.8073
rtibia 38.332
rfoot -22.8454 -6.75565
rtoes -14.5571
lfemur -14.3442 -2.26129 -15.6308
ltibia 41.4868
lfoot -24.6314 7.11737
ltoes -21.3099
1294
root 0.0670375 16.6713 -0.703615 -0.469961 -7.77179 -2.29899
lowerback -1.5901 -0.535238 -3.51516
upperback -5.50195 -0.741088 0.791982
thorax -4.74456 -0.20001 2.80834
lowerneck -8.92114 -10.0012 -18.0882
upperneck 21.6548 -15.076 16.7544
head 11.1875 -6.98867 7.03935
rclavicle 0 1.47101e-014
rhumerus -15.2437 10.2737 -94.2409
rradius 121.648
rwrist 26.5738
rhand 47.5424 8.15548
rfingers 7.12502
rthumb 68.2666 7.5736
lclavicle 0 1.47101e-014
lhumerus -10.6601 -11.9797 101.448
lradius 119.102
lwrist -16.795
lhand 37.8247 44.8022
lfingers 7.12502
lthumb 60.5687 57.9712
rfemur -14.8389 8.52877 21.7616
rtibia 38.1683
rfoot -22.7416 -6.89194
rtoes -14.7983
lfemur -14.3296 -2.25487 -15.6597
ltibia 41.3533
lfoot -24.5369 6.97018
ltoes -21.5062
